<svg xmlns="http://www.w3.org/2000/svg" version="1.1" xmlns:xlink="http://www.w3.org/1999/xlink" xmlns:svgjs="http://svgjs.com/svgjs" width="100%" height="100%" viewBox="-1.1 -1.1 154.2 12.2"><g transform="matrix(1,0,0,1,0,0)"><rect width="7.8" height="0.5" x="-0.9" y="8" class="base" style="fill: rgb(128, 128, 128); stroke: none; stroke-width: 1px; stroke-linecap: butt;"></rect><polygon points="0,0 2,0 2,1 3,1 3,2 1,2 1,1 0,1" class="Z" transform="matrix(1,0,0,1,3,6)" style="fill: rgb(223, 32, 32); stroke: rgb(0, 0, 0); stroke-width: 0.2px; stroke-linecap: butt;"></polygon><polygon points="0,0 2,0 2,2 0,2" class="O" transform="matrix(1,0,0,1,0,6)" style="fill: rgb(223, 223, 32); stroke: rgb(0, 0, 0); stroke-width: 0.2px; stroke-linecap: butt;"></polygon><polygon points="0,1 2,1 2,0 3,0 3,2 0,2" class="L" transform="matrix(6.123233995736766e-17,1,-1,6.123233995736766e-17,3,3)" style="fill: rgb(223, 159, 32); stroke: rgb(0, 0, 0); stroke-width: 0.2px; stroke-linecap: butt;"></polygon><polygon points="4,1 4,0 0,0 0,1" class="I" transform="matrix(6.123233995736766e-17,1,-1,6.123233995736766e-17,1,2)" style="fill: rgb(32, 223, 223); stroke: rgb(0, 0, 0); stroke-width: 0.2px; stroke-linecap: butt;"></polygon><polygon points="1,0 2,0 2,1 3,1 3,2 0,2 0,1 1,1" class="T" transform="matrix(-1.8369701987210297e-16,-1,1,-1.8369701987210297e-16,2.220446049250313e-16,3)" style="fill: rgb(159, 32, 223); stroke: rgb(0, 0, 0); stroke-width: 0.2px; stroke-linecap: butt;"></polygon><polygon points="0,0 1,0 1,1 3,1 3,2 0,2" class="J" transform="matrix(6.123233995736766e-17,1,-1,6.123233995736766e-17,4,2)" style="fill: rgb(32, 32, 223); stroke: rgb(0, 0, 0); stroke-width: 0.2px; stroke-linecap: butt;"></polygon><polygon points="1,0 3,0 3,1 2,1 2,2 0,2 0,1 1,1" class="S" transform="matrix(1,0,0,1,3,0)" style="fill: rgb(32, 223, 32); stroke: rgb(0, 0, 0); stroke-width: 0.2px; stroke-linecap: butt;"></polygon></g><g transform="matrix(1,0,0,1,7,0)"><rect width="6.8" height="0.5" x="-0.9" y="8" class="base" style="fill: rgb(128, 128, 128); stroke: none; stroke-width: 1px; stroke-linecap: butt;"></rect><polygon points="0,1 2,1 2,0 3,0 3,2 0,2" class="L" transform="matrix(6.123233995736766e-17,1,-1,6.123233995736766e-17,5,5)" style="fill: rgb(223, 159, 32); stroke: rgb(0, 0, 0); stroke-width: 0.2px; stroke-linecap: butt;"></polygon><polygon points="0,0 2,0 2,1 3,1 3,2 1,2 1,1 0,1" class="Z" transform="matrix(6.123233995736766e-17,1,-1,6.123233995736766e-17,4,3)" style="fill: rgb(223, 32, 32); stroke: rgb(0, 0, 0); stroke-width: 0.2px; stroke-linecap: butt;"></polygon><polygon points="0,0 1,0 1,1 3,1 3,2 0,2" class="J" transform="matrix(-1.8369701987210297e-16,-1,1,-1.8369701987210297e-16,2.220446049250313e-16,8)" style="fill: rgb(32, 32, 223); stroke: rgb(0, 0, 0); stroke-width: 0.2px; stroke-linecap: butt;"></polygon><polygon points="1,0 2,0 2,1 3,1 3,2 0,2 0,1 1,1" class="T" transform="matrix(6.123233995736766e-17,1,-1,6.123233995736766e-17,3,2)" style="fill: rgb(159, 32, 223); stroke: rgb(0, 0, 0); stroke-width: 0.2px; stroke-linecap: butt;"></polygon><polygon points="4,1 4,0 0,0 0,1" class="I" transform="matrix(6.123233995736766e-17,1,-1,6.123233995736766e-17,5,3)" style="fill: rgb(32, 223, 223); stroke: rgb(0, 0, 0); stroke-width: 0.2px; stroke-linecap: butt;"></polygon><polygon points="0,0 2,0 2,2 0,2" class="O" transform="matrix(1,0,0,1,3,1)" style="fill: rgb(223, 223, 32); stroke: rgb(0, 0, 0); stroke-width: 0.2px; stroke-linecap: butt;"></polygon><polygon points="1,0 3,0 3,1 2,1 2,2 0,2 0,1 1,1" class="S" transform="matrix(1,0,0,1,1,0)" style="fill: rgb(32, 223, 32); stroke: rgb(0, 0, 0); stroke-width: 0.2px; stroke-linecap: butt;"></polygon></g><g transform="matrix(1,0,0,1,13,0)"><rect width="7.8" height="0.5" x="-0.9" y="8" class="base" style="fill: rgb(128, 128, 128); stroke: none; stroke-width: 1px; stroke-linecap: butt;"></rect><polygon points="0,1 2,1 2,0 3,0 3,2 0,2" class="L" transform="matrix(-1.8369701987210297e-16,-1,1,-1.8369701987210297e-16,4,8)" style="fill: rgb(223, 159, 32); stroke: rgb(0, 0, 0); stroke-width: 0.2px; stroke-linecap: butt;"></polygon><polygon points="0,0 2,0 2,1 3,1 3,2 1,2 1,1 0,1" class="Z" transform="matrix(6.123233995736766e-17,1,-1,6.123233995736766e-17,5,3)" style="fill: rgb(223, 32, 32); stroke: rgb(0, 0, 0); stroke-width: 0.2px; stroke-linecap: butt;"></polygon><polygon points="0,0 1,0 1,1 3,1 3,2 0,2" class="J" transform="matrix(-1.8369701987210297e-16,-1,1,-1.8369701987210297e-16,2.220446049250313e-16,8)" style="fill: rgb(32, 32, 223); stroke: rgb(0, 0, 0); stroke-width: 0.2px; stroke-linecap: butt;"></polygon><polygon points="1,0 3,0 3,1 2,1 2,2 0,2 0,1 1,1" class="S" transform="matrix(6.123233995736766e-17,1,-1,6.123233995736766e-17,2,2)" style="fill: rgb(32, 223, 32); stroke: rgb(0, 0, 0); stroke-width: 0.2px; stroke-linecap: butt;"></polygon><polygon points="1,0 2,0 2,1 3,1 3,2 0,2 0,1 1,1" class="T" transform="matrix(-1.8369701987210297e-16,-1,1,-1.8369701987210297e-16,2.220446049250313e-16,3)" style="fill: rgb(159, 32, 223); stroke: rgb(0, 0, 0); stroke-width: 0.2px; stroke-linecap: butt;"></polygon><polygon points="0,0 2,0 2,2 0,2" class="O" transform="matrix(1,0,0,1,2,2)" style="fill: rgb(223, 223, 32); stroke: rgb(0, 0, 0); stroke-width: 0.2px; stroke-linecap: butt;"></polygon><polygon points="4,1 4,0 0,0 0,1" class="I" transform="matrix(6.123233995736766e-17,1,-1,6.123233995736766e-17,6,1)" style="fill: rgb(32, 223, 223); stroke: rgb(0, 0, 0); stroke-width: 0.2px; stroke-linecap: butt;"></polygon></g><g transform="matrix(1,0,0,1,20,0)"><rect width="7.8" height="0.5" x="-0.9" y="8" class="base" style="fill: rgb(128, 128, 128); stroke: none; stroke-width: 1px; stroke-linecap: butt;"></rect><polygon points="1,0 3,0 3,1 2,1 2,2 0,2 0,1 1,1" class="S" transform="matrix(1,0,0,1,3,6)" style="fill: rgb(32, 223, 32); stroke: rgb(0, 0, 0); stroke-width: 0.2px; stroke-linecap: butt;"></polygon><polygon points="1,0 2,0 2,1 3,1 3,2 0,2 0,1 1,1" class="T" transform="matrix(-1,1.2246467991473532e-16,-1.2246467991473532e-16,-1,4,8)" style="fill: rgb(159, 32, 223); stroke: rgb(0, 0, 0); stroke-width: 0.2px; stroke-linecap: butt;"></polygon><polygon points="0,0 2,0 2,1 3,1 3,2 1,2 1,1 0,1" class="Z" transform="matrix(6.123233995736766e-17,1,-1,6.123233995736766e-17,2,4)" style="fill: rgb(223, 32, 32); stroke: rgb(0, 0, 0); stroke-width: 0.2px; stroke-linecap: butt;"></polygon><polygon points="0,0 2,0 2,2 0,2" class="O" transform="matrix(1,0,0,1,0,2)" style="fill: rgb(223, 223, 32); stroke: rgb(0, 0, 0); stroke-width: 0.2px; stroke-linecap: butt;"></polygon><polygon points="0,1 2,1 2,0 3,0 3,2 0,2" class="L" transform="matrix(1,0,0,1,0,0)" style="fill: rgb(223, 159, 32); stroke: rgb(0, 0, 0); stroke-width: 0.2px; stroke-linecap: butt;"></polygon><polygon points="4,1 4,0 0,0 0,1" class="I" transform="matrix(6.123233995736766e-17,1,-1,6.123233995736766e-17,6,2)" style="fill: rgb(32, 223, 223); stroke: rgb(0, 0, 0); stroke-width: 0.2px; stroke-linecap: butt;"></polygon><polygon points="0,0 1,0 1,1 3,1 3,2 0,2" class="J" transform="matrix(1,0,0,1,3,0)" style="fill: rgb(32, 32, 223); stroke: rgb(0, 0, 0); stroke-width: 0.2px; stroke-linecap: butt;"></polygon></g><g transform="matrix(1,0,0,1,27,0)"><rect width="7.8" height="0.5" x="-0.9" y="8" class="base" style="fill: rgb(128, 128, 128); stroke: none; stroke-width: 1px; stroke-linecap: butt;"></rect><polygon points="1,0 3,0 3,1 2,1 2,2 0,2 0,1 1,1" class="S" transform="matrix(1,0,0,1,3,6)" style="fill: rgb(32, 223, 32); stroke: rgb(0, 0, 0); stroke-width: 0.2px; stroke-linecap: butt;"></polygon><polygon points="1,0 2,0 2,1 3,1 3,2 0,2 0,1 1,1" class="T" transform="matrix(-1,1.2246467991473532e-16,-1.2246467991473532e-16,-1,4,8)" style="fill: rgb(159, 32, 223); stroke: rgb(0, 0, 0); stroke-width: 0.2px; stroke-linecap: butt;"></polygon><polygon points="0,0 2,0 2,1 3,1 3,2 1,2 1,1 0,1" class="Z" transform="matrix(6.123233995736766e-17,1,-1,6.123233995736766e-17,2,4)" style="fill: rgb(223, 32, 32); stroke: rgb(0, 0, 0); stroke-width: 0.2px; stroke-linecap: butt;"></polygon><polygon points="0,0 2,0 2,2 0,2" class="O" transform="matrix(1,0,0,1,0,2)" style="fill: rgb(223, 223, 32); stroke: rgb(0, 0, 0); stroke-width: 0.2px; stroke-linecap: butt;"></polygon><polygon points="0,1 2,1 2,0 3,0 3,2 0,2" class="L" transform="matrix(1,0,0,1,0,0)" style="fill: rgb(223, 159, 32); stroke: rgb(0, 0, 0); stroke-width: 0.2px; stroke-linecap: butt;"></polygon><polygon points="4,1 4,0 0,0 0,1" class="I" transform="matrix(6.123233995736766e-17,1,-1,6.123233995736766e-17,6,2)" style="fill: rgb(32, 223, 223); stroke: rgb(0, 0, 0); stroke-width: 0.2px; stroke-linecap: butt;"></polygon><polygon points="0,0 1,0 1,1 3,1 3,2 0,2" class="J" transform="matrix(1,0,0,1,3,0)" style="fill: rgb(32, 32, 223); stroke: rgb(0, 0, 0); stroke-width: 0.2px; stroke-linecap: butt;"></polygon></g><g transform="matrix(1,0,0,1,34,0)"><rect width="7.8" height="0.5" x="-0.9" y="8" class="base" style="fill: rgb(128, 128, 128); stroke: none; stroke-width: 1px; stroke-linecap: butt;"></rect><polygon points="0,1 2,1 2,0 3,0 3,2 0,2" class="L" transform="matrix(1,0,0,1,0,6)" style="fill: rgb(223, 159, 32); stroke: rgb(0, 0, 0); stroke-width: 0.2px; stroke-linecap: butt;"></polygon><polygon points="1,0 2,0 2,1 3,1 3,2 0,2 0,1 1,1" class="T" transform="matrix(6.123233995736766e-17,1,-1,6.123233995736766e-17,3,4)" style="fill: rgb(159, 32, 223); stroke: rgb(0, 0, 0); stroke-width: 0.2px; stroke-linecap: butt;"></polygon><polygon points="0,0 2,0 2,2 0,2" class="O" transform="matrix(1,0,0,1,1,2)" style="fill: rgb(223, 223, 32); stroke: rgb(0, 0, 0); stroke-width: 0.2px; stroke-linecap: butt;"></polygon><polygon points="0,0 2,0 2,1 3,1 3,2 1,2 1,1 0,1" class="Z" transform="matrix(1,0,0,1,0,0)" style="fill: rgb(223, 32, 32); stroke: rgb(0, 0, 0); stroke-width: 0.2px; stroke-linecap: butt;"></polygon><polygon points="1,0 3,0 3,1 2,1 2,2 0,2 0,1 1,1" class="S" transform="matrix(1,0,0,1,3,6)" style="fill: rgb(32, 223, 32); stroke: rgb(0, 0, 0); stroke-width: 0.2px; stroke-linecap: butt;"></polygon><polygon points="0,0 1,0 1,1 3,1 3,2 0,2" class="J" transform="matrix(-1,1.2246467991473532e-16,-1.2246467991473532e-16,-1,5,2)" style="fill: rgb(32, 32, 223); stroke: rgb(0, 0, 0); stroke-width: 0.2px; stroke-linecap: butt;"></polygon><polygon points="4,1 4,0 0,0 0,1" class="I" transform="matrix(6.123233995736766e-17,1,-1,6.123233995736766e-17,6,2)" style="fill: rgb(32, 223, 223); stroke: rgb(0, 0, 0); stroke-width: 0.2px; stroke-linecap: butt;"></polygon></g><g transform="matrix(1,0,0,1,41,0)"><rect width="8.8" height="0.5" x="-0.9" y="8" class="base" style="fill: rgb(128, 128, 128); stroke: none; stroke-width: 1px; stroke-linecap: butt;"></rect><polygon points="1,0 2,0 2,1 3,1 3,2 0,2 0,1 1,1" class="T" transform="matrix(1,0,0,1,2,6)" style="fill: rgb(159, 32, 223); stroke: rgb(0, 0, 0); stroke-width: 0.2px; stroke-linecap: butt;"></polygon><polygon points="0,0 1,0 1,1 3,1 3,2 0,2" class="J" transform="matrix(-1.8369701987210297e-16,-1,1,-1.8369701987210297e-16,2.220446049250313e-16,8)" style="fill: rgb(32, 32, 223); stroke: rgb(0, 0, 0); stroke-width: 0.2px; stroke-linecap: butt;"></polygon><polygon points="0,1 2,1 2,0 3,0 3,2 0,2" class="L" transform="matrix(6.123233995736766e-17,1,-1,6.123233995736766e-17,2,2)" style="fill: rgb(223, 159, 32); stroke: rgb(0, 0, 0); stroke-width: 0.2px; stroke-linecap: butt;"></polygon><polygon points="4,1 4,0 0,0 0,1" class="I" transform="matrix(6.123233995736766e-17,1,-1,6.123233995736766e-17,3,3)" style="fill: rgb(32, 223, 223); stroke: rgb(0, 0, 0); stroke-width: 0.2px; stroke-linecap: butt;"></polygon><polygon points="0,0 2,0 2,1 3,1 3,2 1,2 1,1 0,1" class="Z" transform="matrix(6.123233995736766e-17,1,-1,6.123233995736766e-17,3,1)" style="fill: rgb(223, 32, 32); stroke: rgb(0, 0, 0); stroke-width: 0.2px; stroke-linecap: butt;"></polygon><polygon points="1,0 3,0 3,1 2,1 2,2 0,2 0,1 1,1" class="S" transform="matrix(1,0,0,1,0,0)" style="fill: rgb(32, 223, 32); stroke: rgb(0, 0, 0); stroke-width: 0.2px; stroke-linecap: butt;"></polygon><polygon points="0,0 2,0 2,2 0,2" class="O" transform="matrix(1,0,0,1,5,6)" style="fill: rgb(223, 223, 32); stroke: rgb(0, 0, 0); stroke-width: 0.2px; stroke-linecap: butt;"></polygon></g><g transform="matrix(1,0,0,1,49,0)"><rect width="6.8" height="0.5" x="-0.9" y="8" class="base" style="fill: rgb(128, 128, 128); stroke: none; stroke-width: 1px; stroke-linecap: butt;"></rect><polygon points="4,1 4,0 0,0 0,1" class="I" transform="matrix(1,0,0,1,1,7)" style="fill: rgb(32, 223, 223); stroke: rgb(0, 0, 0); stroke-width: 0.2px; stroke-linecap: butt;"></polygon><polygon points="1,0 2,0 2,1 3,1 3,2 0,2 0,1 1,1" class="T" transform="matrix(6.123233995736766e-17,1,-1,6.123233995736766e-17,2,5)" style="fill: rgb(159, 32, 223); stroke: rgb(0, 0, 0); stroke-width: 0.2px; stroke-linecap: butt;"></polygon><polygon points="1,0 3,0 3,1 2,1 2,2 0,2 0,1 1,1" class="S" transform="matrix(6.123233995736766e-17,1,-1,6.123233995736766e-17,3,4)" style="fill: rgb(32, 223, 32); stroke: rgb(0, 0, 0); stroke-width: 0.2px; stroke-linecap: butt;"></polygon><polygon points="0,1 2,1 2,0 3,0 3,2 0,2" class="L" transform="matrix(-1,1.2246467991473532e-16,-1.2246467991473532e-16,-1,5,5)" style="fill: rgb(223, 159, 32); stroke: rgb(0, 0, 0); stroke-width: 0.2px; stroke-linecap: butt;"></polygon><polygon points="0,0 2,0 2,1 3,1 3,2 1,2 1,1 0,1" class="Z" transform="matrix(6.123233995736766e-17,1,-1,6.123233995736766e-17,3,1)" style="fill: rgb(223, 32, 32); stroke: rgb(0, 0, 0); stroke-width: 0.2px; stroke-linecap: butt;"></polygon><polygon points="0,0 2,0 2,2 0,2" class="O" transform="matrix(1,0,0,1,0,0)" style="fill: rgb(223, 223, 32); stroke: rgb(0, 0, 0); stroke-width: 0.2px; stroke-linecap: butt;"></polygon><polygon points="0,0 1,0 1,1 3,1 3,2 0,2" class="J" transform="matrix(-1,1.2246467991473532e-16,-1.2246467991473532e-16,-1,5,2)" style="fill: rgb(32, 32, 223); stroke: rgb(0, 0, 0); stroke-width: 0.2px; stroke-linecap: butt;"></polygon></g><g transform="matrix(1,0,0,1,58,0)"><rect width="6.8" height="0.5" x="-0.9" y="8" class="base" style="fill: rgb(128, 128, 128); stroke: none; stroke-width: 1px; stroke-linecap: butt;"></rect><polygon points="0,1 2,1 2,0 3,0 3,2 0,2" class="L" transform="matrix(1,0,0,1,2,6)" style="fill: rgb(223, 159, 32); stroke: rgb(0, 0, 0); stroke-width: 0.2px; stroke-linecap: butt;"></polygon><polygon points="0,0 2,0 2,1 3,1 3,2 1,2 1,1 0,1" class="Z" transform="matrix(6.123233995736766e-17,1,-1,6.123233995736766e-17,5,4)" style="fill: rgb(223, 32, 32); stroke: rgb(0, 0, 0); stroke-width: 0.2px; stroke-linecap: butt;"></polygon><polygon points="1,0 2,0 2,1 3,1 3,2 0,2 0,1 1,1" class="T" transform="matrix(-1,1.2246467991473532e-16,-1.2246467991473532e-16,-1,3,8)" style="fill: rgb(159, 32, 223); stroke: rgb(0, 0, 0); stroke-width: 0.2px; stroke-linecap: butt;"></polygon><polygon points="1,0 3,0 3,1 2,1 2,2 0,2 0,1 1,1" class="S" transform="matrix(1,0,0,1,2,3)" style="fill: rgb(32, 223, 32); stroke: rgb(0, 0, 0); stroke-width: 0.2px; stroke-linecap: butt;"></polygon><polygon points="0,0 1,0 1,1 3,1 3,2 0,2" class="J" transform="matrix(-1.8369701987210297e-16,-1,1,-1.8369701987210297e-16,1.0000000000000002,4)" style="fill: rgb(32, 32, 223); stroke: rgb(0, 0, 0); stroke-width: 0.2px; stroke-linecap: butt;"></polygon><polygon points="0,0 2,0 2,2 0,2" class="O" transform="matrix(1,0,0,1,0,1)" style="fill: rgb(223, 223, 32); stroke: rgb(0, 0, 0); stroke-width: 0.2px; stroke-linecap: butt;"></polygon><polygon points="4,1 4,0 0,0 0,1" class="I" transform="matrix(1,0,0,1,1,0)" style="fill: rgb(32, 223, 223); stroke: rgb(0, 0, 0); stroke-width: 0.2px; stroke-linecap: butt;"></polygon></g><g transform="matrix(1,0,0,1,64,0)"><rect width="7.8" height="0.5" x="-0.9" y="8" class="base" style="fill: rgb(128, 128, 128); stroke: none; stroke-width: 1px; stroke-linecap: butt;"></rect><polygon points="1,0 3,0 3,1 2,1 2,2 0,2 0,1 1,1" class="S" transform="matrix(1,0,0,1,3,6)" style="fill: rgb(32, 223, 32); stroke: rgb(0, 0, 0); stroke-width: 0.2px; stroke-linecap: butt;"></polygon><polygon points="1,0 2,0 2,1 3,1 3,2 0,2 0,1 1,1" class="T" transform="matrix(-1,1.2246467991473532e-16,-1.2246467991473532e-16,-1,4,8)" style="fill: rgb(159, 32, 223); stroke: rgb(0, 0, 0); stroke-width: 0.2px; stroke-linecap: butt;"></polygon><polygon points="0,0 2,0 2,1 3,1 3,2 1,2 1,1 0,1" class="Z" transform="matrix(6.123233995736766e-17,1,-1,6.123233995736766e-17,2,4)" style="fill: rgb(223, 32, 32); stroke: rgb(0, 0, 0); stroke-width: 0.2px; stroke-linecap: butt;"></polygon><polygon points="0,0 2,0 2,2 0,2" class="O" transform="matrix(1,0,0,1,0,2)" style="fill: rgb(223, 223, 32); stroke: rgb(0, 0, 0); stroke-width: 0.2px; stroke-linecap: butt;"></polygon><polygon points="0,1 2,1 2,0 3,0 3,2 0,2" class="L" transform="matrix(1,0,0,1,0,0)" style="fill: rgb(223, 159, 32); stroke: rgb(0, 0, 0); stroke-width: 0.2px; stroke-linecap: butt;"></polygon><polygon points="4,1 4,0 0,0 0,1" class="I" transform="matrix(6.123233995736766e-17,1,-1,6.123233995736766e-17,6,2)" style="fill: rgb(32, 223, 223); stroke: rgb(0, 0, 0); stroke-width: 0.2px; stroke-linecap: butt;"></polygon><polygon points="0,0 1,0 1,1 3,1 3,2 0,2" class="J" transform="matrix(1,0,0,1,3,0)" style="fill: rgb(32, 32, 223); stroke: rgb(0, 0, 0); stroke-width: 0.2px; stroke-linecap: butt;"></polygon></g><g transform="matrix(1,0,0,1,71,0)"><rect width="8.8" height="0.5" x="-0.9" y="8" class="base" style="fill: rgb(128, 128, 128); stroke: none; stroke-width: 1px; stroke-linecap: butt;"></rect><polygon points="1,0 2,0 2,1 3,1 3,2 0,2 0,1 1,1" class="T" transform="matrix(1,0,0,1,2,6)" style="fill: rgb(159, 32, 223); stroke: rgb(0, 0, 0); stroke-width: 0.2px; stroke-linecap: butt;"></polygon><polygon points="0,0 1,0 1,1 3,1 3,2 0,2" class="J" transform="matrix(-1.8369701987210297e-16,-1,1,-1.8369701987210297e-16,2.220446049250313e-16,8)" style="fill: rgb(32, 32, 223); stroke: rgb(0, 0, 0); stroke-width: 0.2px; stroke-linecap: butt;"></polygon><polygon points="0,1 2,1 2,0 3,0 3,2 0,2" class="L" transform="matrix(6.123233995736766e-17,1,-1,6.123233995736766e-17,2,2)" style="fill: rgb(223, 159, 32); stroke: rgb(0, 0, 0); stroke-width: 0.2px; stroke-linecap: butt;"></polygon><polygon points="4,1 4,0 0,0 0,1" class="I" transform="matrix(6.123233995736766e-17,1,-1,6.123233995736766e-17,3,3)" style="fill: rgb(32, 223, 223); stroke: rgb(0, 0, 0); stroke-width: 0.2px; stroke-linecap: butt;"></polygon><polygon points="0,0 2,0 2,1 3,1 3,2 1,2 1,1 0,1" class="Z" transform="matrix(6.123233995736766e-17,1,-1,6.123233995736766e-17,3,1)" style="fill: rgb(223, 32, 32); stroke: rgb(0, 0, 0); stroke-width: 0.2px; stroke-linecap: butt;"></polygon><polygon points="1,0 3,0 3,1 2,1 2,2 0,2 0,1 1,1" class="S" transform="matrix(1,0,0,1,0,0)" style="fill: rgb(32, 223, 32); stroke: rgb(0, 0, 0); stroke-width: 0.2px; stroke-linecap: butt;"></polygon><polygon points="0,0 2,0 2,2 0,2" class="O" transform="matrix(1,0,0,1,5,6)" style="fill: rgb(223, 223, 32); stroke: rgb(0, 0, 0); stroke-width: 0.2px; stroke-linecap: butt;"></polygon></g><g transform="matrix(1,0,0,1,79,0)"><rect width="8.8" height="0.5" x="-0.9" y="8" class="base" style="fill: rgb(128, 128, 128); stroke: none; stroke-width: 1px; stroke-linecap: butt;"></rect><polygon points="1,0 2,0 2,1 3,1 3,2 0,2 0,1 1,1" class="T" transform="matrix(-1,1.2246467991473532e-16,-1.2246467991473532e-16,-1,5,8)" style="fill: rgb(159, 32, 223); stroke: rgb(0, 0, 0); stroke-width: 0.2px; stroke-linecap: butt;"></polygon><polygon points="4,1 4,0 0,0 0,1" class="I" transform="matrix(1,0,0,1,1,5)" style="fill: rgb(32, 223, 223); stroke: rgb(0, 0, 0); stroke-width: 0.2px; stroke-linecap: butt;"></polygon><polygon points="0,0 2,0 2,1 3,1 3,2 1,2 1,1 0,1" class="Z" transform="matrix(1,0,0,1,0,3)" style="fill: rgb(223, 32, 32); stroke: rgb(0, 0, 0); stroke-width: 0.2px; stroke-linecap: butt;"></polygon><polygon points="1,0 3,0 3,1 2,1 2,2 0,2 0,1 1,1" class="S" transform="matrix(6.123233995736766e-17,1,-1,6.123233995736766e-17,3,1)" style="fill: rgb(32, 223, 32); stroke: rgb(0, 0, 0); stroke-width: 0.2px; stroke-linecap: butt;"></polygon><polygon points="0,0 2,0 2,2 0,2" class="O" transform="matrix(1,0,0,1,4,3)" style="fill: rgb(223, 223, 32); stroke: rgb(0, 0, 0); stroke-width: 0.2px; stroke-linecap: butt;"></polygon><polygon points="0,1 2,1 2,0 3,0 3,2 0,2" class="L" transform="matrix(6.123233995736766e-17,1,-1,6.123233995736766e-17,7,0)" style="fill: rgb(223, 159, 32); stroke: rgb(0, 0, 0); stroke-width: 0.2px; stroke-linecap: butt;"></polygon><polygon points="0,0 1,0 1,1 3,1 3,2 0,2" class="J" transform="matrix(6.123233995736766e-17,1,-1,6.123233995736766e-17,2,0)" style="fill: rgb(32, 32, 223); stroke: rgb(0, 0, 0); stroke-width: 0.2px; stroke-linecap: butt;"></polygon></g><g transform="matrix(1,0,0,1,87,0)"><rect width="6.8" height="0.5" x="-0.9" y="8" class="base" style="fill: rgb(128, 128, 128); stroke: none; stroke-width: 1px; stroke-linecap: butt;"></rect><polygon points="4,1 4,0 0,0 0,1" class="I" transform="matrix(1,0,0,1,1,7)" style="fill: rgb(32, 223, 223); stroke: rgb(0, 0, 0); stroke-width: 0.2px; stroke-linecap: butt;"></polygon><polygon points="1,0 2,0 2,1 3,1 3,2 0,2 0,1 1,1" class="T" transform="matrix(6.123233995736766e-17,1,-1,6.123233995736766e-17,2,5)" style="fill: rgb(159, 32, 223); stroke: rgb(0, 0, 0); stroke-width: 0.2px; stroke-linecap: butt;"></polygon><polygon points="1,0 3,0 3,1 2,1 2,2 0,2 0,1 1,1" class="S" transform="matrix(6.123233995736766e-17,1,-1,6.123233995736766e-17,3,4)" style="fill: rgb(32, 223, 32); stroke: rgb(0, 0, 0); stroke-width: 0.2px; stroke-linecap: butt;"></polygon><polygon points="0,1 2,1 2,0 3,0 3,2 0,2" class="L" transform="matrix(-1,1.2246467991473532e-16,-1.2246467991473532e-16,-1,5,5)" style="fill: rgb(223, 159, 32); stroke: rgb(0, 0, 0); stroke-width: 0.2px; stroke-linecap: butt;"></polygon><polygon points="0,0 2,0 2,1 3,1 3,2 1,2 1,1 0,1" class="Z" transform="matrix(6.123233995736766e-17,1,-1,6.123233995736766e-17,3,1)" style="fill: rgb(223, 32, 32); stroke: rgb(0, 0, 0); stroke-width: 0.2px; stroke-linecap: butt;"></polygon><polygon points="0,0 2,0 2,2 0,2" class="O" transform="matrix(1,0,0,1,0,0)" style="fill: rgb(223, 223, 32); stroke: rgb(0, 0, 0); stroke-width: 0.2px; stroke-linecap: butt;"></polygon><polygon points="0,0 1,0 1,1 3,1 3,2 0,2" class="J" transform="matrix(-1,1.2246467991473532e-16,-1.2246467991473532e-16,-1,5,2)" style="fill: rgb(32, 32, 223); stroke: rgb(0, 0, 0); stroke-width: 0.2px; stroke-linecap: butt;"></polygon></g><g transform="matrix(1,0,0,1,93,0)"><rect width="6.8" height="0.5" x="-0.9" y="8" class="base" style="fill: rgb(128, 128, 128); stroke: none; stroke-width: 1px; stroke-linecap: butt;"></rect><polygon points="4,1 4,0 0,0 0,1" class="I" transform="matrix(6.123233995736766e-17,1,-1,6.123233995736766e-17,1,4)" style="fill: rgb(32, 223, 223); stroke: rgb(0, 0, 0); stroke-width: 0.2px; stroke-linecap: butt;"></polygon><polygon points="1,0 2,0 2,1 3,1 3,2 0,2 0,1 1,1" class="T" transform="matrix(-1.8369701987210297e-16,-1,1,-1.8369701987210297e-16,2.220446049250313e-16,5)" style="fill: rgb(159, 32, 223); stroke: rgb(0, 0, 0); stroke-width: 0.2px; stroke-linecap: butt;"></polygon><polygon points="0,0 2,0 2,1 3,1 3,2 1,2 1,1 0,1" class="Z" transform="matrix(6.123233995736766e-17,1,-1,6.123233995736766e-17,2,0)" style="fill: rgb(223, 32, 32); stroke: rgb(0, 0, 0); stroke-width: 0.2px; stroke-linecap: butt;"></polygon><polygon points="1,0 3,0 3,1 2,1 2,2 0,2 0,1 1,1" class="S" transform="matrix(6.123233995736766e-17,1,-1,6.123233995736766e-17,5,5)" style="fill: rgb(32, 223, 32); stroke: rgb(0, 0, 0); stroke-width: 0.2px; stroke-linecap: butt;"></polygon><polygon points="0,1 2,1 2,0 3,0 3,2 0,2" class="L" transform="matrix(-1,1.2246467991473532e-16,-1.2246467991473532e-16,-1,5,6)" style="fill: rgb(223, 159, 32); stroke: rgb(0, 0, 0); stroke-width: 0.2px; stroke-linecap: butt;"></polygon><polygon points="0,0 2,0 2,2 0,2" class="O" transform="matrix(1,0,0,1,3,2)" style="fill: rgb(223, 223, 32); stroke: rgb(0, 0, 0); stroke-width: 0.2px; stroke-linecap: butt;"></polygon><polygon points="0,0 1,0 1,1 3,1 3,2 0,2" class="J" transform="matrix(-1,1.2246467991473532e-16,-1.2246467991473532e-16,-1,5,2)" style="fill: rgb(32, 32, 223); stroke: rgb(0, 0, 0); stroke-width: 0.2px; stroke-linecap: butt;"></polygon></g><g transform="matrix(1,0,0,1,102,0)"><rect width="6.8" height="0.5" x="-0.9" y="8" class="base" style="fill: rgb(128, 128, 128); stroke: none; stroke-width: 1px; stroke-linecap: butt;"></rect><polygon points="4,1 4,0 0,0 0,1" class="I" transform="matrix(1,0,0,1,1,7)" style="fill: rgb(32, 223, 223); stroke: rgb(0, 0, 0); stroke-width: 0.2px; stroke-linecap: butt;"></polygon><polygon points="1,0 2,0 2,1 3,1 3,2 0,2 0,1 1,1" class="T" transform="matrix(6.123233995736766e-17,1,-1,6.123233995736766e-17,2,5)" style="fill: rgb(159, 32, 223); stroke: rgb(0, 0, 0); stroke-width: 0.2px; stroke-linecap: butt;"></polygon><polygon points="1,0 3,0 3,1 2,1 2,2 0,2 0,1 1,1" class="S" transform="matrix(6.123233995736766e-17,1,-1,6.123233995736766e-17,3,4)" style="fill: rgb(32, 223, 32); stroke: rgb(0, 0, 0); stroke-width: 0.2px; stroke-linecap: butt;"></polygon><polygon points="0,1 2,1 2,0 3,0 3,2 0,2" class="L" transform="matrix(-1,1.2246467991473532e-16,-1.2246467991473532e-16,-1,5,5)" style="fill: rgb(223, 159, 32); stroke: rgb(0, 0, 0); stroke-width: 0.2px; stroke-linecap: butt;"></polygon><polygon points="0,0 2,0 2,1 3,1 3,2 1,2 1,1 0,1" class="Z" transform="matrix(6.123233995736766e-17,1,-1,6.123233995736766e-17,3,1)" style="fill: rgb(223, 32, 32); stroke: rgb(0, 0, 0); stroke-width: 0.2px; stroke-linecap: butt;"></polygon><polygon points="0,0 2,0 2,2 0,2" class="O" transform="matrix(1,0,0,1,0,0)" style="fill: rgb(223, 223, 32); stroke: rgb(0, 0, 0); stroke-width: 0.2px; stroke-linecap: butt;"></polygon><polygon points="0,0 1,0 1,1 3,1 3,2 0,2" class="J" transform="matrix(-1,1.2246467991473532e-16,-1.2246467991473532e-16,-1,5,2)" style="fill: rgb(32, 32, 223); stroke: rgb(0, 0, 0); stroke-width: 0.2px; stroke-linecap: butt;"></polygon></g><g transform="matrix(1,0,0,1,108,0)"><rect width="8.8" height="0.5" x="-0.9" y="8" class="base" style="fill: rgb(128, 128, 128); stroke: none; stroke-width: 1px; stroke-linecap: butt;"></rect><polygon points="0,0 2,0 2,2 0,2" class="O" transform="matrix(1,0,0,1,5,6)" style="fill: rgb(223, 223, 32); stroke: rgb(0, 0, 0); stroke-width: 0.2px; stroke-linecap: butt;"></polygon><polygon points="1,0 2,0 2,1 3,1 3,2 0,2 0,1 1,1" class="T" transform="matrix(6.123233995736766e-17,1,-1,6.123233995736766e-17,6,4)" style="fill: rgb(159, 32, 223); stroke: rgb(0, 0, 0); stroke-width: 0.2px; stroke-linecap: butt;"></polygon><polygon points="0,0 2,0 2,1 3,1 3,2 1,2 1,1 0,1" class="Z" transform="matrix(6.123233995736766e-17,1,-1,6.123233995736766e-17,5,2)" style="fill: rgb(223, 32, 32); stroke: rgb(0, 0, 0); stroke-width: 0.2px; stroke-linecap: butt;"></polygon><polygon points="1,0 3,0 3,1 2,1 2,2 0,2 0,1 1,1" class="S" transform="matrix(1,0,0,1,0,6)" style="fill: rgb(32, 223, 32); stroke: rgb(0, 0, 0); stroke-width: 0.2px; stroke-linecap: butt;"></polygon><polygon points="0,1 2,1 2,0 3,0 3,2 0,2" class="L" transform="matrix(1,0,0,1,4,0)" style="fill: rgb(223, 159, 32); stroke: rgb(0, 0, 0); stroke-width: 0.2px; stroke-linecap: butt;"></polygon><polygon points="4,1 4,0 0,0 0,1" class="I" transform="matrix(6.123233995736766e-17,1,-1,6.123233995736766e-17,3,2)" style="fill: rgb(32, 223, 223); stroke: rgb(0, 0, 0); stroke-width: 0.2px; stroke-linecap: butt;"></polygon><polygon points="0,0 1,0 1,1 3,1 3,2 0,2" class="J" transform="matrix(1,0,0,1,0,0)" style="fill: rgb(32, 32, 223); stroke: rgb(0, 0, 0); stroke-width: 0.2px; stroke-linecap: butt;"></polygon></g><g transform="matrix(1,0,0,1,116,0)"><rect width="11.8" height="0.5" x="-0.9" y="8" class="base" style="fill: rgb(128, 128, 128); stroke: none; stroke-width: 1px; stroke-linecap: butt;"></rect><polygon points="0,0 2,0 2,2 0,2" class="O" transform="matrix(1,0,0,1,4,6)" style="fill: rgb(223, 223, 32); stroke: rgb(0, 0, 0); stroke-width: 0.2px; stroke-linecap: butt;"></polygon><polygon points="0,1 2,1 2,0 3,0 3,2 0,2" class="L" transform="matrix(6.123233995736766e-17,1,-1,6.123233995736766e-17,6,3)" style="fill: rgb(223, 159, 32); stroke: rgb(0, 0, 0); stroke-width: 0.2px; stroke-linecap: butt;"></polygon><polygon points="4,1 4,0 0,0 0,1" class="I" transform="matrix(6.123233995736766e-17,1,-1,6.123233995736766e-17,6,1)" style="fill: rgb(32, 223, 223); stroke: rgb(0, 0, 0); stroke-width: 0.2px; stroke-linecap: butt;"></polygon><polygon points="0,0 2,0 2,1 3,1 3,2 1,2 1,1 0,1" class="Z" transform="matrix(1,0,0,1,5,0)" style="fill: rgb(223, 32, 32); stroke: rgb(0, 0, 0); stroke-width: 0.2px; stroke-linecap: butt;"></polygon><polygon points="1,0 2,0 2,1 3,1 3,2 0,2 0,1 1,1" class="T" transform="matrix(-1,1.2246467991473532e-16,-1.2246467991473532e-16,-1,10,2)" style="fill: rgb(159, 32, 223); stroke: rgb(0, 0, 0); stroke-width: 0.2px; stroke-linecap: butt;"></polygon><polygon points="0,0 1,0 1,1 3,1 3,2 0,2" class="J" transform="matrix(-1,1.2246467991473532e-16,-1.2246467991473532e-16,-1,5,3)" style="fill: rgb(32, 32, 223); stroke: rgb(0, 0, 0); stroke-width: 0.2px; stroke-linecap: butt;"></polygon><polygon points="1,0 3,0 3,1 2,1 2,2 0,2 0,1 1,1" class="S" transform="matrix(1,0,0,1,0,0)" style="fill: rgb(32, 223, 32); stroke: rgb(0, 0, 0); stroke-width: 0.2px; stroke-linecap: butt;"></polygon></g><g transform="matrix(1,0,0,1,127,0)"><rect width="6.8" height="0.5" x="-0.9" y="8" class="base" style="fill: rgb(128, 128, 128); stroke: none; stroke-width: 1px; stroke-linecap: butt;"></rect><polygon points="4,1 4,0 0,0 0,1" class="I" transform="matrix(6.123233995736766e-17,1,-1,6.123233995736766e-17,1,4)" style="fill: rgb(32, 223, 223); stroke: rgb(0, 0, 0); stroke-width: 0.2px; stroke-linecap: butt;"></polygon><polygon points="1,0 2,0 2,1 3,1 3,2 0,2 0,1 1,1" class="T" transform="matrix(-1.8369701987210297e-16,-1,1,-1.8369701987210297e-16,2.220446049250313e-16,5)" style="fill: rgb(159, 32, 223); stroke: rgb(0, 0, 0); stroke-width: 0.2px; stroke-linecap: butt;"></polygon><polygon points="0,0 2,0 2,1 3,1 3,2 1,2 1,1 0,1" class="Z" transform="matrix(6.123233995736766e-17,1,-1,6.123233995736766e-17,2,0)" style="fill: rgb(223, 32, 32); stroke: rgb(0, 0, 0); stroke-width: 0.2px; stroke-linecap: butt;"></polygon><polygon points="1,0 3,0 3,1 2,1 2,2 0,2 0,1 1,1" class="S" transform="matrix(6.123233995736766e-17,1,-1,6.123233995736766e-17,5,5)" style="fill: rgb(32, 223, 32); stroke: rgb(0, 0, 0); stroke-width: 0.2px; stroke-linecap: butt;"></polygon><polygon points="0,1 2,1 2,0 3,0 3,2 0,2" class="L" transform="matrix(-1,1.2246467991473532e-16,-1.2246467991473532e-16,-1,5,6)" style="fill: rgb(223, 159, 32); stroke: rgb(0, 0, 0); stroke-width: 0.2px; stroke-linecap: butt;"></polygon><polygon points="0,0 2,0 2,2 0,2" class="O" transform="matrix(1,0,0,1,3,2)" style="fill: rgb(223, 223, 32); stroke: rgb(0, 0, 0); stroke-width: 0.2px; stroke-linecap: butt;"></polygon><polygon points="0,0 1,0 1,1 3,1 3,2 0,2" class="J" transform="matrix(-1,1.2246467991473532e-16,-1.2246467991473532e-16,-1,5,2)" style="fill: rgb(32, 32, 223); stroke: rgb(0, 0, 0); stroke-width: 0.2px; stroke-linecap: butt;"></polygon></g><g transform="matrix(1,0,0,1,133,0)"><rect width="6.8" height="0.5" x="-0.9" y="8" class="base" style="fill: rgb(128, 128, 128); stroke: none; stroke-width: 1px; stroke-linecap: butt;"></rect><polygon points="4,1 4,0 0,0 0,1" class="I" transform="matrix(1,0,0,1,1,7)" style="fill: rgb(32, 223, 223); stroke: rgb(0, 0, 0); stroke-width: 0.2px; stroke-linecap: butt;"></polygon><polygon points="1,0 2,0 2,1 3,1 3,2 0,2 0,1 1,1" class="T" transform="matrix(6.123233995736766e-17,1,-1,6.123233995736766e-17,2,5)" style="fill: rgb(159, 32, 223); stroke: rgb(0, 0, 0); stroke-width: 0.2px; stroke-linecap: butt;"></polygon><polygon points="1,0 3,0 3,1 2,1 2,2 0,2 0,1 1,1" class="S" transform="matrix(6.123233995736766e-17,1,-1,6.123233995736766e-17,3,4)" style="fill: rgb(32, 223, 32); stroke: rgb(0, 0, 0); stroke-width: 0.2px; stroke-linecap: butt;"></polygon><polygon points="0,1 2,1 2,0 3,0 3,2 0,2" class="L" transform="matrix(-1,1.2246467991473532e-16,-1.2246467991473532e-16,-1,5,5)" style="fill: rgb(223, 159, 32); stroke: rgb(0, 0, 0); stroke-width: 0.2px; stroke-linecap: butt;"></polygon><polygon points="0,0 2,0 2,1 3,1 3,2 1,2 1,1 0,1" class="Z" transform="matrix(6.123233995736766e-17,1,-1,6.123233995736766e-17,3,1)" style="fill: rgb(223, 32, 32); stroke: rgb(0, 0, 0); stroke-width: 0.2px; stroke-linecap: butt;"></polygon><polygon points="0,0 2,0 2,2 0,2" class="O" transform="matrix(1,0,0,1,0,0)" style="fill: rgb(223, 223, 32); stroke: rgb(0, 0, 0); stroke-width: 0.2px; stroke-linecap: butt;"></polygon><polygon points="0,0 1,0 1,1 3,1 3,2 0,2" class="J" transform="matrix(-1,1.2246467991473532e-16,-1.2246467991473532e-16,-1,5,2)" style="fill: rgb(32, 32, 223); stroke: rgb(0, 0, 0); stroke-width: 0.2px; stroke-linecap: butt;"></polygon></g><g transform="matrix(1,0,0,1,139,0)"><rect width="8.8" height="0.5" x="-0.9" y="8" class="base" style="fill: rgb(128, 128, 128); stroke: none; stroke-width: 1px; stroke-linecap: butt;"></rect><polygon points="1,0 2,0 2,1 3,1 3,2 0,2 0,1 1,1" class="T" transform="matrix(6.123233995736766e-17,1,-1,6.123233995736766e-17,7,5)" style="fill: rgb(159, 32, 223); stroke: rgb(0, 0, 0); stroke-width: 0.2px; stroke-linecap: butt;"></polygon><polygon points="0,1 2,1 2,0 3,0 3,2 0,2" class="L" transform="matrix(-1.8369701987210297e-16,-1,1,-1.8369701987210297e-16,4,5)" style="fill: rgb(223, 159, 32); stroke: rgb(0, 0, 0); stroke-width: 0.2px; stroke-linecap: butt;"></polygon><polygon points="0,0 1,0 1,1 3,1 3,2 0,2" class="J" transform="matrix(6.123233995736766e-17,1,-1,6.123233995736766e-17,5,1)" style="fill: rgb(32, 32, 223); stroke: rgb(0, 0, 0); stroke-width: 0.2px; stroke-linecap: butt;"></polygon><polygon points="0,0 2,0 2,1 3,1 3,2 1,2 1,1 0,1" class="Z" transform="matrix(1,0,0,1,4,0)" style="fill: rgb(223, 32, 32); stroke: rgb(0, 0, 0); stroke-width: 0.2px; stroke-linecap: butt;"></polygon><polygon points="0,0 2,0 2,2 0,2" class="O" transform="matrix(1,0,0,1,0,6)" style="fill: rgb(223, 223, 32); stroke: rgb(0, 0, 0); stroke-width: 0.2px; stroke-linecap: butt;"></polygon><polygon points="4,1 4,0 0,0 0,1" class="I" transform="matrix(6.123233995736766e-17,1,-1,6.123233995736766e-17,2,2)" style="fill: rgb(32, 223, 223); stroke: rgb(0, 0, 0); stroke-width: 0.2px; stroke-linecap: butt;"></polygon><polygon points="1,0 3,0 3,1 2,1 2,2 0,2 0,1 1,1" class="S" transform="matrix(6.123233995736766e-17,1,-1,6.123233995736766e-17,3,0)" style="fill: rgb(32, 223, 32); stroke: rgb(0, 0, 0); stroke-width: 0.2px; stroke-linecap: butt;"></polygon></g><g transform="matrix(1,0,0,1,147,0)"><rect width="6.8" height="0.5" x="-0.9" y="8" class="base" style="fill: rgb(128, 128, 128); stroke: none; stroke-width: 1px; stroke-linecap: butt;"></rect><polygon points="4,1 4,0 0,0 0,1" class="I" transform="matrix(1,0,0,1,1,7)" style="fill: rgb(32, 223, 223); stroke: rgb(0, 0, 0); stroke-width: 0.2px; stroke-linecap: butt;"></polygon><polygon points="1,0 2,0 2,1 3,1 3,2 0,2 0,1 1,1" class="T" transform="matrix(6.123233995736766e-17,1,-1,6.123233995736766e-17,2,5)" style="fill: rgb(159, 32, 223); stroke: rgb(0, 0, 0); stroke-width: 0.2px; stroke-linecap: butt;"></polygon><polygon points="1,0 3,0 3,1 2,1 2,2 0,2 0,1 1,1" class="S" transform="matrix(6.123233995736766e-17,1,-1,6.123233995736766e-17,3,4)" style="fill: rgb(32, 223, 32); stroke: rgb(0, 0, 0); stroke-width: 0.2px; stroke-linecap: butt;"></polygon><polygon points="0,1 2,1 2,0 3,0 3,2 0,2" class="L" transform="matrix(-1,1.2246467991473532e-16,-1.2246467991473532e-16,-1,5,5)" style="fill: rgb(223, 159, 32); stroke: rgb(0, 0, 0); stroke-width: 0.2px; stroke-linecap: butt;"></polygon><polygon points="0,0 2,0 2,1 3,1 3,2 1,2 1,1 0,1" class="Z" transform="matrix(6.123233995736766e-17,1,-1,6.123233995736766e-17,3,1)" style="fill: rgb(223, 32, 32); stroke: rgb(0, 0, 0); stroke-width: 0.2px; stroke-linecap: butt;"></polygon><polygon points="0,0 2,0 2,2 0,2" class="O" transform="matrix(1,0,0,1,0,0)" style="fill: rgb(223, 223, 32); stroke: rgb(0, 0, 0); stroke-width: 0.2px; stroke-linecap: butt;"></polygon><polygon points="0,0 1,0 1,1 3,1 3,2 0,2" class="J" transform="matrix(-1,1.2246467991473532e-16,-1.2246467991473532e-16,-1,5,2)" style="fill: rgb(32, 32, 223); stroke: rgb(0, 0, 0); stroke-width: 0.2px; stroke-linecap: butt;"></polygon></g></svg>